<?xml version="1.0" encoding="utf-8"?>
<!-- Generator: Adobe Illustrator 16.0.0, SVG Export Plug-In . SVG Version: 6.00 Build 0)  -->
<!DOCTYPE svg PUBLIC "-//W3C//DTD SVG 1.1//EN" "http://www.w3.org/Graphics/SVG/1.1/DTD/svg11.dtd">
<svg version="1.1" id="Layer_1" xmlns="http://www.w3.org/2000/svg" xmlns:xlink="http://www.w3.org/1999/xlink" x="0px" y="0px"
	 width="800px" height="420.846px" viewBox="0 0 800 420.846" enable-background="new 0 0 800 420.846" xml:space="preserve">
<g>
	<path fill="#FF1D25" d="M611.745,158.144c0,0.342,0.021,0.68,0.026,1.021c-0.008-0.394-0.03-0.783-0.03-1.178
		c0-33.725,27.339-61.068,61.064-61.068c33.725,0,61.068,27.343,61.068,61.068s-27.344,61.066-61.068,61.066
		c-1.939,0-3.856-0.101-5.752-0.277c0.189,0.017,0.378,0.046,0.567,0.062l0.004-0.018c2.791,0.525,5.584,1.036,8.364,1.546
		c23.287,4.268,47.285,8.689,67.796,18.841c0,0,0,0,0.002,0.002c22.61-19.776,36.91-48.82,36.91-81.221
		c0-59.588-48.3-107.897-107.899-107.897c-59.58,0-107.888,48.31-107.888,107.897c0,25.358,8.77,48.654,23.412,67.072
		c14.614-18.38,23.372-41.619,23.41-66.915H611.745z"/>
	<path fill="#3FA9F5" d="M287.381,50.09h-32.633v17.021c0.177-0.03,0.35-0.074,0.53-0.074h19.816c2.573,0,4.658,2.896,4.658,6.469
		c0,3.57-2.085,6.468-4.658,6.468h-19.816c-0.18,0-0.353-0.046-0.53-0.074v17.019h32.633V265.88h54.777V50.09H287.381z"/>
	<path fill="#3FA9F5" d="M503.836,50.09c-59.584,0-107.894,48.308-107.894,107.897c0,22.668,7.005,43.692,18.951,61.057h88.61
		c-33.571-0.183-60.729-27.447-60.729-61.057c0-33.725,27.34-61.07,61.068-61.07c33.723,0,61.064,27.345,61.064,61.07
		c0-25.357,8.771-48.654,23.414-67.074C568.557,66.051,538.069,50.09,503.836,50.09z"/>
	<path fill="none" d="M120.403,96.918c-33.727,0-61.068,27.345-61.068,61.07s27.341,61.066,61.068,61.066
		c23.76,0,44.334-13.578,54.428-33.392l-1.642-0.192v-54.969l1.642-0.191C164.735,110.499,144.161,96.918,120.403,96.918z"/>
	<path fill="#3FA9F5" d="M181.931,186.491l-7.1-0.829c-10.094,19.813-30.668,33.392-54.428,33.392
		c-33.727,0-61.068-27.341-61.068-61.066s27.341-61.07,61.068-61.07c23.758,0,44.332,13.581,54.428,33.392l7.1-0.831l41.098-4.805
		c-14.04-43.279-54.667-74.583-102.633-74.583c-59.583,0-107.892,48.308-107.892,107.897c0,59.588,48.31,107.892,107.892,107.892
		c47.965,0,88.595-31.302,102.633-74.582L181.931,186.491z"/>
	<g>
		<rect x="86.178" y="220.89" fill="#3FA9F5" width="25.119" height="78.36"/>
		<rect x="86.178" y="16.721" fill="#3FA9F5" width="25.119" height="78.36"/>
		<rect x="124.234" y="220.89" fill="#3FA9F5" width="25.121" height="78.36"/>
		<rect x="124.234" y="16.721" fill="#3FA9F5" width="25.121" height="78.36"/>
	</g>
	<g>
		<path fill="#3FA9F5" d="M275.095,131.201l-107.468,12.567l-3.959-7.769c-8.346-16.377-24.924-26.551-43.265-26.551
			c-26.765,0-48.539,21.775-48.539,48.54c0,26.763,21.774,48.537,48.539,48.537c18.343,0,34.921-10.174,43.265-26.549l3.957-7.771
			l107.47,12.567V131.201z"/>
	</g>
	<path fill="#3FA9F5" d="M503.504,219.045c0.113,0,0.223,0.009,0.336,0.009v-0.009H503.504z"/>
	<polygon fill="#3FA9F5" points="503.84,265.88 503.84,265.88 503.836,265.88 	"/>
	<path fill="#3FA9F5" d="M672.804,265.88c-1.657,0-3.303-0.049-4.939-0.125c1.635,0.076,3.28,0.125,4.936,0.125
		C672.802,265.88,672.802,265.88,672.804,265.88z"/>
	<path fill="#3FA9F5" d="M662.645,265.389c1.505,0.142,3.017,0.259,4.54,0.339C665.661,265.647,664.149,265.53,662.645,265.389z"/>
	<path fill="#3FA9F5" d="M661.694,265.298c0.316,0.031,0.635,0.062,0.95,0.091C662.329,265.359,662.011,265.329,661.694,265.298z"/>
	<path fill="#3FA9F5" d="M667.185,265.728c0.227,0.011,0.451,0.019,0.68,0.027C667.638,265.746,667.411,265.74,667.185,265.728z"/>
	<g>
		<path fill="#3FA9F5" d="M652.295,263.909c0.299,0.059,0.603,0.098,0.901,0.152c-0.515-0.086-1.03-0.168-1.539-0.269
			C651.867,263.838,652.084,263.868,652.295,263.909z"/>
		<path fill="#3FA9F5" d="M653.652,264.142c-0.026-0.006-0.053-0.012-0.078-0.018c-0.127-0.021-0.253-0.041-0.378-0.063
			C653.349,264.087,653.5,264.113,653.652,264.142z"/>
		<path fill="#3FA9F5" d="M780.699,157.988c0-59.59-48.304-107.897-107.899-107.897c-34.227,0-64.713,15.96-84.478,40.823
			c-14.643,18.42-23.414,41.717-23.414,67.074c0,33.725-27.342,61.066-61.064,61.066c-0.004,0-0.004,0-0.004,0
			c-0.113,0-0.223-0.009-0.336-0.009h-88.61h-72.735l-54.777,46.835h216.455h0.004c34.232-0.002,64.717-15.959,84.482-40.821
			c1.829-2.302,3.566-4.679,5.206-7.126c-1.64,2.447-3.377,4.824-5.206,7.126c0.002,0.002,0.003,0.004,0.005,0.006
			c0.987,1.24,2.001,2.46,3.041,3.655c0.021,0.024,0.041,0.047,0.063,0.071c1.038,1.193,2.104,2.363,3.193,3.509
			c0.011,0.013,0.024,0.026,0.035,0.037c15.457,16.236,35.923,27.646,58.915,31.787c6.242,1.127,12.658,1.756,19.224,1.756
			c27.194,0,52.016-10.077,70.989-26.672c-0.002-0.002-0.002-0.002-0.002-0.002C766.397,219.432,780.699,190.389,780.699,157.988z
			 M593.997,217.202c0.651-0.987,1.298-1.98,1.919-2.992C595.295,215.222,594.648,216.213,593.997,217.202z M596.59,213.059
			c0.525-0.885,1.056-1.767,1.558-2.668C597.646,211.292,597.115,212.174,596.59,213.059z M603.903,198.374
			c-0.065,0.157-0.136,0.31-0.199,0.466C603.768,198.684,603.838,198.531,603.903,198.374z M602.146,202.469
			c-0.167,0.369-0.353,0.728-0.524,1.095C601.793,203.197,601.979,202.838,602.146,202.469z M600.227,206.476
			c-0.309,0.611-0.642,1.207-0.961,1.811C599.585,207.683,599.918,207.087,600.227,206.476z M667.625,218.819l-0.004,0.018
			c-0.189-0.016-0.378-0.045-0.567-0.062c-0.444-0.041-0.885-0.093-1.327-0.144c-0.557-0.064-1.11-0.132-1.661-0.212
			c-0.44-0.063-0.879-0.134-1.316-0.206c-0.547-0.092-1.09-0.187-1.629-0.29c-0.436-0.084-0.866-0.173-1.298-0.269
			c-0.536-0.115-1.067-0.237-1.598-0.368c-0.428-0.105-0.854-0.214-1.277-0.327c-0.526-0.139-1.049-0.29-1.567-0.444
			c-0.419-0.124-0.835-0.251-1.252-0.383c-0.515-0.167-1.026-0.342-1.536-0.521c-0.409-0.144-0.818-0.287-1.224-0.439
			c-0.507-0.189-1.011-0.392-1.514-0.597c-0.394-0.16-0.788-0.317-1.179-0.485c-0.502-0.216-0.997-0.446-1.491-0.673
			c-0.381-0.179-0.767-0.352-1.144-0.536c-0.493-0.241-0.979-0.496-1.464-0.75c-0.366-0.191-0.736-0.377-1.097-0.575
			c-0.495-0.272-0.979-0.558-1.466-0.843c-0.342-0.2-0.688-0.392-1.024-0.599c-0.508-0.311-1.002-0.638-1.501-0.963
			c-0.305-0.197-0.613-0.387-0.911-0.59c-0.589-0.399-1.164-0.816-1.738-1.236c-0.195-0.143-0.4-0.279-0.595-0.425
			c-0.757-0.567-1.501-1.152-2.23-1.752c-0.27-0.222-0.527-0.456-0.792-0.682c-0.457-0.391-0.918-0.779-1.364-1.183
			c-0.313-0.282-0.612-0.577-0.917-0.865c-0.385-0.364-0.775-0.723-1.151-1.097c-0.316-0.313-0.619-0.638-0.928-0.958
			c-0.352-0.365-0.705-0.726-1.047-1.098c-0.309-0.337-0.608-0.685-0.909-1.028c-0.326-0.37-0.651-0.738-0.967-1.116
			c-0.3-0.359-0.59-0.725-0.88-1.091c-0.304-0.378-0.604-0.756-0.896-1.141c-0.286-0.376-0.565-0.761-0.843-1.144
			c-0.28-0.388-0.56-0.775-0.831-1.169c-0.271-0.395-0.535-0.795-0.798-1.197c-0.26-0.396-0.517-0.793-0.768-1.196
			c-0.255-0.411-0.504-0.827-0.751-1.244c-0.238-0.404-0.473-0.812-0.701-1.222c-0.24-0.429-0.475-0.86-0.703-1.294
			c-0.218-0.412-0.428-0.827-0.636-1.243c-0.222-0.444-0.439-0.89-0.649-1.34c-0.197-0.42-0.387-0.844-0.574-1.27
			c-0.201-0.458-0.4-0.915-0.59-1.378c-0.177-0.429-0.344-0.86-0.51-1.292c-0.182-0.473-0.364-0.945-0.533-1.423
			c-0.154-0.433-0.298-0.871-0.442-1.308c-0.16-0.485-0.322-0.971-0.471-1.462c-0.134-0.44-0.255-0.887-0.38-1.332
			c-0.137-0.498-0.278-0.995-0.405-1.497c-0.109-0.444-0.206-0.893-0.309-1.34c-0.115-0.512-0.236-1.024-0.34-1.542
			c-0.088-0.443-0.16-0.893-0.24-1.339c-0.093-0.53-0.191-1.057-0.271-1.591c-0.064-0.437-0.111-0.88-0.167-1.319
			c-0.071-0.552-0.149-1.101-0.205-1.657c-0.037-0.378-0.056-0.762-0.085-1.143c-0.101-1.251-0.164-2.512-0.189-3.783
			c-0.006-0.341-0.026-0.679-0.026-1.021h-0.013c0-0.052,0.003-0.104,0.003-0.156c0-0.054-0.003-0.106-0.003-0.158h0.013
			c0.085-33.653,27.39-60.912,61.063-60.912c33.725,0,61.066,27.345,61.066,61.07s-27.342,61.066-61.066,61.066
			c-1.7,0-3.383-0.072-5.047-0.21c2.746,0.516,5.493,1.02,8.229,1.521C673.209,219.855,670.416,219.345,667.625,218.819z"/>
	</g>
	<path fill="#3FA9F5" d="M667.621,218.837c0,0,0,0,0.002,0c0.047,0.003,0.091,0.005,0.138,0.007
		c-0.047-0.007-0.091-0.015-0.136-0.024L667.621,218.837z"/>
	<linearGradient id="SVGID_1_" gradientUnits="userSpaceOnUse" x1="447.4873" y1="236.9917" x2="450.7419" y2="176.0205">
		<stop  offset="0" style="stop-color:#000000"/>
		<stop  offset="0.9951" style="stop-color:#000000;stop-opacity:0"/>
	</linearGradient>
	<path fill="url(#SVGID_1_)" d="M414.894,219.045h88.61c-30.933-0.169-56.403-23.336-60.217-53.271H396.23
		C397.638,185.463,404.329,203.687,414.894,219.045z"/>
	<linearGradient id="SVGID_2_" gradientUnits="userSpaceOnUse" x1="583.4697" y1="116.832" x2="531.0358" y2="100.4462">
		<stop  offset="0" style="stop-color:#000000"/>
		<stop  offset="0.9951" style="stop-color:#000000;stop-opacity:0"/>
	</linearGradient>
	<path fill="url(#SVGID_2_)" d="M539.254,56.058l-14.706,44.468c23.531,8.483,40.36,31.006,40.36,57.462
		c0-25.357,8.771-48.654,23.414-67.074C575.722,75.064,558.761,62.843,539.254,56.058z"/>
	<linearGradient id="SVGID_3_" gradientUnits="userSpaceOnUse" x1="591.585" y1="195.0234" x2="644.9703" y2="217.9067">
		<stop  offset="0" style="stop-color:#000000"/>
		<stop  offset="0.9951" style="stop-color:#000000;stop-opacity:0"/>
	</linearGradient>
	<path fill="url(#SVGID_3_)" d="M634.644,258.89l14.721-44.516c-22.042-9.174-37.556-30.882-37.619-56.23h-0.013
		c-0.038,25.296-8.796,48.535-23.41,66.915C600.325,240.158,616.292,251.95,634.644,258.89z"/>
	<g>
		<linearGradient id="SVGID_4_" gradientUnits="userSpaceOnUse" x1="71.8647" y1="157.9863" x2="275.0947" y2="157.9863">
			<stop  offset="0" style="stop-color:#000000"/>
			<stop  offset="0.9951" style="stop-color:#000000;stop-opacity:0"/>
		</linearGradient>
		<path fill="url(#SVGID_4_)" d="M275.095,131.201l-107.468,12.567l-3.959-7.769c-8.346-16.377-24.924-26.551-43.265-26.551
			c-26.765,0-48.539,21.775-48.539,48.54c0,26.763,21.774,48.537,48.539,48.537c18.343,0,34.921-10.174,43.265-26.549l3.957-7.771
			l107.47,12.567V131.201z"/>
	</g>
	<path fill="#29ABE2" d="M549.985,389.757c0,8.301-6.731,15.032-15.033,15.032H102.698c-8.305,0-15.035-6.731-15.035-15.032v-65.282
		c0-8.301,6.73-15.032,15.035-15.032h432.254c8.302,0,15.033,6.731,15.033,15.032V389.757z"/>
	<g>
		<path fill="#0071BC" d="M135.929,362.927c-4.691,0-8.65-3.095-8.65-8.903c0-5.312,3.706-9.02,8.775-9.02
			c2.098,0,4.328,0.804,6.122,2.41l4.758-5.006c-3.336-3.272-6.678-4.511-11.005-4.511c-8.834,0-16.189,5.314-16.189,16.126
			c0,10.815,7.355,16.134,16.189,16.134c4.513,0,8.219-1.365,11.747-4.824l-5.069-4.942
			C140.752,362.246,138.344,362.927,135.929,362.927z"/>
		<path fill="#0071BC" d="M177.072,342.286l-0.556-3.522h-6.982v30.46h7.539V353.16c0-5.619,3.646-7.725,7.604-7.725
			c2.47,0,3.892,0.681,5.434,1.979l3.396-6.549c-1.663-1.67-4.694-2.901-7.844-2.901C182.57,337.964,179.42,338.519,177.072,342.286
			z"/>
		<path fill="#0071BC" d="M265.17,338.083c-3.462,0-7.539,1.484-9.889,4.88l-0.497-4.199h-7.048v43.194h7.544v-16.313
			c2.159,3.332,6.923,4.325,10.133,4.325c9.761,0,15.386-7.044,15.386-15.947C280.8,345.067,274.561,338.083,265.17,338.083z
			 M264.607,362.678c-5.121,0-8.645-3.894-8.645-8.654c0-4.757,3.211-8.644,8.645-8.644c5.447,0,8.656,3.887,8.656,8.644
			C273.263,358.784,269.743,362.678,264.607,362.678z"/>
		<path fill="#0071BC" d="M319.403,362.804c-2.343,0-3.957-1.424-3.957-4.329V345.31h8.47v-6.482h-8.403v-8.654l-7.539,0.807v7.848
			h-5.685v6.482h5.685v13.165c0,7.603,4.322,11.366,10.94,11.12c2.284-0.059,4.076-0.435,6.233-1.301l-2.098-6.42
			C321.939,362.429,320.582,362.804,319.403,362.804z"/>
		<path fill="#0071BC" d="M362.398,338.143c-9.702,0-15.754,7.167-15.754,15.881c0,8.78,5.928,15.888,15.813,15.888
			c9.89,0,15.883-7.107,15.883-15.888C378.34,345.31,372.103,338.143,362.398,338.143z M362.457,362.986
			c-5.497,0-8.269-4.325-8.269-8.963c0-4.571,2.837-9.02,8.269-9.02c5.071,0,8.281,4.448,8.281,9.02
			C370.738,358.661,367.96,362.986,362.457,362.986z"/>
		<rect x="402.051" y="326.033" fill="#0071BC" width="7.483" height="43.19"/>
		<path fill="#0071BC" d="M449.007,338.143c-9.695,0-15.75,7.167-15.75,15.881c0,8.78,5.923,15.888,15.812,15.888
			c9.888,0,15.881-7.107,15.881-15.888C464.949,345.31,458.708,338.143,449.007,338.143z M449.068,362.986
			c-5.499,0-8.273-4.325-8.273-8.963c0-4.571,2.838-9.02,8.273-9.02c5.069,0,8.286,4.448,8.286,9.02
			C457.354,358.661,454.565,362.986,449.068,362.986z"/>
		<path fill="#0071BC" d="M511.78,364.623c-0.115-0.06-0.208-0.119-0.325-0.179c0.628-0.29,1.197-0.621,1.718-0.997
			c3.642-2.606,4.736-7.1,4.736-10.413c0-0.16-0.007-0.324-0.007-0.48c0-0.007,0-0.011,0-0.021c0-0.026,0-0.057,0-0.086
			c0-0.015-0.008-0.033-0.008-0.049c-0.027-3.287-1.112-6.314-2.935-8.77c-1.409-1.9-3.241-3.451-5.366-4.511
			c-0.798-0.398-1.633-0.729-2.494-0.982c-0.165-0.052-0.323-0.097-0.49-0.134c0,0,0,0-0.008,0c-0.498-0.138-1.016-0.245-1.54-0.313
			c-0.72-0.104-1.462-0.163-2.211-0.163c-0.093,0-0.171,0.004-0.257,0.007c-0.039,0-0.085-0.003-0.132-0.003
			c-8.558,0-15.501,5.958-15.501,15.505s5.948,15.382,15.501,15.382c3.782,0,7.757,1.919,7.757,6.141
			c0,4.21-3.411,6.571-7.757,6.571c-4.342,0-8.002-2.61-8.002-6.571h-7.499c0,8.249,6.633,13.642,15.501,13.642
			c8.876,0,15.319-5.214,15.319-13.642C517.781,370.733,516.584,367.151,511.78,364.623z M508.093,359.227
			c-1.448,1.483-3.442,2.306-5.631,2.306c-3.979,0-7.289-2.593-7.892-7.021c-0.063-0.469-0.11-0.96-0.11-1.477
			c0-5.334,3.599-8.629,8.002-8.629c4.346,0,7.94,3.358,7.94,8.629C510.402,355.645,509.516,357.761,508.093,359.227z"/>
		<path fill="#0071BC" d="M234.538,338.641l-16.415,38.117h-7.308l5.017-11.67l-10.743-26.447h7.743l4.091,11.615l2.563,7.579
			l2.78-7.416l4.909-11.778H234.538z"/>
	</g>
	<linearGradient id="SVGID_5_" gradientUnits="userSpaceOnUse" x1="341.3042" y1="223.0479" x2="370.1897" y2="241.563">
		<stop  offset="0" style="stop-color:#000000"/>
		<stop  offset="0.9951" style="stop-color:#000000;stop-opacity:0"/>
	</linearGradient>
	<rect x="342.158" y="219.045" fill="url(#SVGID_5_)" width="58.867" height="46.835"/>
	<path fill="#0071BC" d="M760.497,249.629c-12.323,11.797-26.999,21.151-43.263,27.248c1.771,1.205,3.459,2.503,5.017,3.926
		c7.56,6.899,12.407,16.396,12.407,28.7c0,29.452-23.82,45.913-54.136,45.913c-30.314,0-55.874-18.192-55.874-45.913h-52.406
		c0,57.604,46.344,95.286,108.28,95.286s106.974-36.384,106.974-95.286C787.496,287.306,781.75,266.263,760.497,249.629z"/>
	<path fill="none" d="M733.874,157.987c0-33.725-27.344-61.068-61.068-61.068c-33.726,0-61.064,27.343-61.064,61.068
		c0,0.396,0.022,0.785,0.03,1.178c0.025,1.271,0.089,2.532,0.189,3.783c0.029,0.38,0.048,0.764,0.085,1.143
		c0.056,0.556,0.134,1.105,0.205,1.657c0.056,0.439,0.103,0.882,0.167,1.319c0.08,0.534,0.179,1.061,0.271,1.591
		c0.08,0.446,0.152,0.896,0.24,1.339c0.104,0.519,0.225,1.03,0.34,1.542c0.103,0.447,0.199,0.896,0.309,1.34
		c0.127,0.502,0.269,0.999,0.405,1.497c0.125,0.445,0.246,0.891,0.38,1.332c0.148,0.491,0.311,0.977,0.471,1.462
		c0.145,0.437,0.288,0.875,0.442,1.308c0.169,0.478,0.352,0.951,0.533,1.423c0.166,0.433,0.333,0.864,0.51,1.292
		c0.189,0.462,0.389,0.92,0.59,1.378c0.188,0.426,0.377,0.85,0.574,1.27c0.21,0.45,0.428,0.896,0.649,1.34
		c0.208,0.417,0.418,0.832,0.636,1.243c0.229,0.434,0.463,0.866,0.703,1.294c0.229,0.41,0.463,0.817,0.701,1.222
		c0.247,0.417,0.496,0.833,0.751,1.244c0.251,0.402,0.508,0.8,0.768,1.196c0.263,0.402,0.526,0.802,0.798,1.197
		c0.271,0.394,0.551,0.782,0.831,1.169c0.277,0.383,0.557,0.768,0.843,1.144c0.292,0.385,0.595,0.762,0.896,1.141
		c0.29,0.366,0.58,0.732,0.88,1.091c0.315,0.377,0.641,0.746,0.967,1.116c0.301,0.344,0.601,0.691,0.909,1.028
		c0.342,0.373,0.695,0.734,1.047,1.098c0.309,0.32,0.611,0.644,0.928,0.958c0.376,0.374,0.767,0.733,1.151,1.097
		c0.305,0.288,0.604,0.583,0.917,0.865c0.446,0.403,0.907,0.792,1.364,1.183c0.265,0.226,0.522,0.46,0.792,0.682
		c0.729,0.601,1.474,1.186,2.23,1.752c0.194,0.146,0.399,0.282,0.595,0.425c0.574,0.419,1.149,0.837,1.738,1.236
		c0.298,0.204,0.606,0.394,0.911,0.59c0.499,0.326,0.993,0.653,1.501,0.963c0.337,0.207,0.683,0.399,1.024,0.599
		c0.487,0.285,0.971,0.571,1.466,0.843c0.36,0.198,0.73,0.384,1.097,0.575c0.485,0.254,0.971,0.509,1.464,0.75
		c0.377,0.185,0.763,0.357,1.144,0.536c0.494,0.227,0.989,0.457,1.491,0.673c0.391,0.168,0.785,0.325,1.179,0.485
		c0.503,0.205,1.007,0.407,1.514,0.597c0.405,0.152,0.814,0.296,1.224,0.439c0.51,0.179,1.021,0.354,1.536,0.521
		c0.417,0.132,0.833,0.259,1.252,0.383c0.519,0.154,1.043,0.306,1.567,0.444c0.424,0.113,0.85,0.222,1.277,0.327
		c0.53,0.131,1.062,0.253,1.598,0.368c0.432,0.096,0.862,0.185,1.298,0.269c0.539,0.104,1.082,0.198,1.629,0.29
		c0.438,0.072,0.876,0.143,1.316,0.206c0.551,0.08,1.104,0.147,1.661,0.212c0.44,0.051,0.883,0.103,1.327,0.144
		c1.896,0.177,3.813,0.277,5.752,0.277C706.53,219.053,733.874,191.712,733.874,157.987z"/>
	<path fill="#FF1D25" d="M654.128,216.133c-0.515-0.167-1.026-0.342-1.536-0.521C653.102,215.791,653.613,215.966,654.128,216.133z"
		/>
	<path fill="#FF1D25" d="M612.418,167.067c-0.064-0.437-0.111-0.88-0.167-1.319C612.307,166.188,612.354,166.63,612.418,167.067z"/>
	<path fill="#FF1D25" d="M656.947,216.96c-0.524-0.139-1.049-0.29-1.567-0.444C655.898,216.67,656.421,216.821,656.947,216.96z"/>
	<path fill="#FF1D25" d="M618.769,186.424c-0.218-0.412-0.428-0.827-0.636-1.243C618.341,185.598,618.551,186.013,618.769,186.424z"
		/>
	<path fill="#FF1D25" d="M623.32,193.747c-0.28-0.388-0.56-0.775-0.831-1.169C622.761,192.972,623.04,193.359,623.32,193.747z"/>
	<path fill="#FF1D25" d="M651.368,215.173c-0.507-0.189-1.011-0.392-1.514-0.597C650.357,214.781,650.861,214.983,651.368,215.173z"
		/>
	<path fill="#FF1D25" d="M612.93,169.997c-0.088-0.443-0.16-0.893-0.24-1.339C612.77,169.104,612.842,169.554,612.93,169.997z"/>
	<path fill="#FF1D25" d="M659.822,217.655c-0.536-0.115-1.067-0.237-1.598-0.368C658.755,217.418,659.286,217.54,659.822,217.655z"
		/>
	<path fill="#FF1D25" d="M591.368,228.72c-1.04-1.195-2.054-2.415-3.041-3.655C589.314,226.307,590.328,227.524,591.368,228.72z"/>
	<path fill="#FF1D25" d="M653.652,264.142c-23.025-4.131-43.518-15.55-58.993-31.805c15.172,15.942,35.157,27.246,57.636,31.572
		c-0.211-0.041-0.428-0.071-0.638-0.116C652.316,263.924,652.988,264.021,653.652,264.142z"/>
	<path fill="#FF1D25" d="M594.624,232.3c-1.09-1.146-2.155-2.315-3.193-3.509C592.469,229.984,593.534,231.154,594.624,232.3z"/>
	<path fill="#FF1D25" d="M612.046,164.091c-0.037-0.378-0.056-0.762-0.085-1.143C611.99,163.329,612.009,163.712,612.046,164.091z"
		/>
	<path fill="#FF1D25" d="M626.906,198.238c-0.326-0.37-0.651-0.738-0.967-1.116C626.255,197.5,626.58,197.868,626.906,198.238z"/>
	<path fill="#FF1D25" d="M662.749,218.214c-0.547-0.092-1.09-0.187-1.629-0.29C661.659,218.027,662.202,218.122,662.749,218.214z"/>
	<path fill="#FF1D25" d="M621.691,191.381c-0.26-0.396-0.517-0.794-0.768-1.196C621.175,190.588,621.432,190.985,621.691,191.381z"
		/>
	<path fill="#FF1D25" d="M665.727,218.632c-0.557-0.064-1.11-0.132-1.661-0.212C664.616,218.5,665.17,218.567,665.727,218.632z"/>
	<path fill="#FF1D25" d="M648.676,214.091c-0.502-0.216-0.997-0.446-1.491-0.673C647.679,213.645,648.174,213.875,648.676,214.091z"
		/>
	<path fill="#FF1D25" d="M615.276,178.478c-0.154-0.433-0.298-0.871-0.442-1.308C614.979,177.606,615.122,178.044,615.276,178.478z"
		/>
	<path fill="#FF1D25" d="M633.223,204.467c-0.457-0.391-0.918-0.779-1.364-1.183C632.305,203.688,632.766,204.076,633.223,204.467z"
		/>
	<path fill="#FF1D25" d="M617.483,183.841c-0.197-0.42-0.387-0.844-0.574-1.27C617.097,182.997,617.286,183.421,617.483,183.841z"/>
	<path fill="#FF1D25" d="M636.245,206.901c-0.757-0.567-1.501-1.152-2.23-1.752C634.744,205.749,635.488,206.334,636.245,206.901z"
		/>
	<path fill="#FF1D25" d="M630.941,202.419c-0.385-0.364-0.775-0.723-1.151-1.097C630.166,201.696,630.557,202.056,630.941,202.419z"
		/>
	<path fill="#FF1D25" d="M628.862,200.365c-0.352-0.364-0.705-0.726-1.047-1.098C628.157,199.639,628.511,200,628.862,200.365z"/>
	<path fill="#FF1D25" d="M616.319,181.193c-0.177-0.429-0.344-0.86-0.51-1.292C615.976,180.333,616.143,180.765,616.319,181.193z"/>
	<path fill="#FF1D25" d="M620.173,188.94c-0.238-0.404-0.473-0.812-0.701-1.222C619.7,188.129,619.935,188.536,620.173,188.94z"/>
	<path fill="#FF1D25" d="M638.578,208.562c-0.589-0.399-1.164-0.816-1.738-1.236C637.414,207.745,637.989,208.163,638.578,208.562z"
		/>
	<path fill="#FF1D25" d="M643.48,211.557c-0.495-0.272-0.979-0.558-1.466-0.843C642.502,210.999,642.985,211.285,643.48,211.557z"/>
	<path fill="#FF1D25" d="M646.041,212.882c-0.493-0.241-0.979-0.496-1.464-0.75C645.063,212.386,645.548,212.641,646.041,212.882z"
		/>
	<path fill="#FF1D25" d="M613.578,172.879c-0.109-0.444-0.206-0.893-0.309-1.34C613.372,171.987,613.469,172.436,613.578,172.879z"
		/>
	<path fill="#FF1D25" d="M614.363,175.708c-0.134-0.44-0.255-0.887-0.38-1.332C614.108,174.821,614.229,175.267,614.363,175.708z"/>
	<path fill="#FF1D25" d="M640.99,210.115c-0.508-0.311-1.002-0.638-1.501-0.963C639.988,209.478,640.482,209.805,640.99,210.115z"/>
	<path fill="#FF1D25" d="M625.06,196.032c-0.302-0.378-0.604-0.756-0.896-1.141C624.455,195.276,624.756,195.653,625.06,196.032z"/>
</g>
</svg>
